<svg width="256" height="256" viewBox="0 0 256 256" fill="none" xmlns="http://www.w3.org/2000/svg">
<path d="M179.799 102.389V46.9554C179.799 36.7927 171.484 28.4777 161.322 28.4777H152.083V10H133.605V28.4777H59.6943V10H41.2166V28.4777H31.9777C21.815 28.4777 13.5 36.7927 13.5 46.9554V176.299C13.5 186.462 21.815 194.777 31.9777 194.777H96.6497V176.299H31.9777V83.9109H161.322V102.389H179.799Z" fill="#535353"/>
<path d="M175.18 113.937C138.191 113.937 108.198 143.413 108.198 179.764C108.198 216.115 138.191 245.591 175.18 245.591C212.169 245.591 242.162 216.115 242.162 179.764C242.162 143.413 212.169 113.937 175.18 113.937ZM195.944 210.556L167.738 182.763V143.194H182.622V176.765L206.513 200.244L195.944 210.556Z" fill="#2684FF"/>
<path d="M70.2822 107.974C62.8218 116.349 57.702 128.38 57.2266 129.514L43.988 123.845L58.7991 109.034C60.5179 107.316 63.0047 106.548 65.4183 107.023L70.2822 107.974ZM77.5232 146.921C77.5232 146.921 91.2005 141.253 99.0632 133.39C118.811 113.642 115.52 98.2096 114.459 94.7354C110.985 93.6383 95.5524 90.3835 75.8044 110.132C67.9417 117.994 62.2733 131.672 62.2733 131.672L77.5232 146.921ZM101.221 138.913C92.8462 146.373 80.8145 151.493 79.6808 151.968L85.3493 165.207L100.16 150.396C101.879 148.677 102.647 146.19 102.172 143.776L101.221 138.913ZM69.5874 150.579C69.5874 153.614 68.344 156.357 66.3692 158.331C62.0539 162.647 43.988 165.207 43.988 165.207C43.988 165.207 46.548 147.141 50.8633 142.826C52.8381 140.851 55.5809 139.607 58.6162 139.607C64.6869 139.607 69.5874 144.508 69.5874 150.579ZM84.2156 117.665C84.2156 113.642 87.5069 110.351 91.5297 110.351C95.5524 110.351 98.8438 113.642 98.8438 117.665C98.8438 121.688 95.5524 124.979 91.5297 124.979C87.5069 124.979 84.2156 121.688 84.2156 117.665Z" fill="#535353"/>
</svg>
